<svg width="21" height="26" viewBox="0 0 21 26" xmlns="http://www.w3.org/2000/svg">
<path fill-rule="evenodd" clip-rule="evenodd" d="M16.7711 13.814C16.7403 10.6914 19.3175 9.19308 19.4334 9.11963C17.9841 6.99957 15.7283 6.70941 14.9247 6.67608C13.0044 6.48131 11.1775 7.80624 10.2037 7.80624C9.2315 7.80624 7.72738 6.70387 6.13526 6.73421C4.04272 6.76437 2.11267 7.95088 1.03445 9.82507C-1.13949 13.5981 0.478284 19.188 2.59723 22.2476C3.63332 23.7454 4.86815 25.4283 6.48962 25.3678C8.05021 25.3066 8.64084 24.3584 10.5288 24.3584C12.416 24.3584 12.9471 25.3678 14.5988 25.3369C16.279 25.3066 17.3438 23.8106 18.3724 22.3077C19.5612 20.5701 20.0504 18.8879 20.0805 18.8012C20.0428 18.7845 16.8035 17.5431 16.7711 13.814ZM13.6665 4.64984C14.5273 3.60636 15.1081 2.15787 14.9493 0.713287C13.7102 0.762973 12.2068 1.53775 11.318 2.57985C10.5197 3.5041 9.82148 4.97942 10.0088 6.39561C11.3925 6.50312 12.8049 5.69094 13.6665 4.64984Z"/>
</svg>
