<svg width="70" height="70" viewBox="0 0 70 70" xmlns="http://www.w3.org/2000/svg">
<path fill-rule="evenodd" clip-rule="evenodd" d="M61.2417 56.8679V69.9886L48.1207 56.8679H26.2527C21.8789 56.8679 17.5053 52.4938 17.5053 48.1202V45.5573L23.6901 39.3733H43.7471C50.4957 39.3733 56.8681 32.9965 56.8681 26.2523V21.8789H61.2417C65.6153 21.8789 69.9889 26.2523 69.9889 30.6258V48.1202C69.9889 52.4938 65.6153 56.8679 61.2417 56.8679ZM43.7471 34.9994H21.8789L8.75805 48.1202V34.9994C4.38445 34.9994 0.010849 30.6258 0.010849 26.2523V8.75792C0.010849 4.38404 4.38445 0.010437 8.75805 0.010437H43.7471C48.1207 0.010437 52.4945 4.38404 52.4945 8.75792V26.2523C52.4945 30.6258 48.1207 34.9994 43.7471 34.9994Z" />
</svg>
