<svg width="23" height="25" viewBox="0 0 23 25" xmlns="http://www.w3.org/2000/svg">
<path fill-rule="evenodd" clip-rule="evenodd" d="M20.6338 7.95919C19.7857 7.95919 19.0927 8.65279 19.0927 9.49989V15.6642C19.0927 16.5117 19.7857 17.2051 20.6338 17.2051C21.4818 17.2051 22.1748 16.5117 22.1748 15.6642V9.49989C22.1748 8.65279 21.4818 7.95919 20.6338 7.95919ZM2.14145 7.95919C1.29355 7.95919 0.600403 8.65279 0.600403 9.49989V15.6642C0.600403 16.5117 1.29355 17.2051 2.14145 17.2051C2.98955 17.2051 3.68259 16.5117 3.68259 15.6642V9.49989C3.68259 8.65279 2.98955 7.95919 2.14145 7.95919ZM4.45302 17.9759C4.45302 19.2518 5.48763 20.2874 6.76452 20.2874H7.53509V23.3698C7.53509 24.2166 8.22801 24.9105 9.07602 24.9105C9.9241 24.9105 10.6171 24.2166 10.6171 23.3698V20.2874H12.1581V23.3698C12.1581 24.2166 12.8511 24.9105 13.6992 24.9105C14.5472 24.9105 15.2401 24.2166 15.2401 23.3698V20.2874H16.0107C17.2876 20.2874 18.3222 19.2518 18.3222 17.9759V9.49989H4.45302V17.9759ZM14.2432 2.40909L15.2184 0.535489C15.268 0.441714 15.2304 0.324514 15.137 0.275864C15.0423 0.226989 14.9256 0.264039 14.8767 0.358389L13.8865 2.25956C13.1114 1.95974 12.2688 1.79506 11.3876 1.79506C10.5064 1.79506 9.66381 1.95974 8.88864 2.25956L7.89853 0.358389C7.84966 0.264039 7.73284 0.226989 7.6382 0.275864C7.54477 0.324514 7.5073 0.441714 7.55687 0.535489L8.53198 2.40909C6.34999 3.39644 4.76973 5.48081 4.49591 7.95919H18.2793C18.0055 5.48081 16.4253 3.39644 14.2432 2.40909ZM8.30552 6.76499C7.68857 6.76499 7.18816 6.26446 7.18816 5.64784C7.18816 5.03069 7.68857 4.53031 8.30552 4.53031C8.92258 4.53031 9.42295 5.03069 9.42295 5.64784C9.42295 6.26446 8.92258 6.76499 8.30552 6.76499ZM14.4696 6.76499C13.8526 6.76499 13.3522 6.26446 13.3522 5.64784C13.3522 5.03069 13.8526 4.53031 14.4696 4.53031C15.0867 4.53031 15.5871 5.03069 15.5871 5.64784C15.5871 6.26446 15.0867 6.76499 14.4696 6.76499Z" />
</svg>
