<svg width="49" height="69" viewBox="0 0 49 69" xmlns="http://www.w3.org/2000/svg">
<path fill-rule="evenodd" clip-rule="evenodd" d="M41.5986 68.9887H7.4012C3.86953 68.9887 0.989227 66.0876 0.989227 62.5221V6.47709C0.989227 2.91145 3.86953 0.0103455 7.4012 0.0103455H41.5986C45.1385 0.0103455 48.0106 2.91145 48.0106 6.47709V62.5221C48.0106 66.0876 45.1385 68.9887 41.5986 68.9887ZM43.7359 6.47709C43.7359 5.28995 42.7758 4.3216 41.5986 4.3216H7.4012C6.22399 4.3216 5.26392 5.28995 5.26392 6.47709V62.5221C5.26392 63.7096 6.22399 64.6776 7.4012 64.6776H41.5986C42.7758 64.6776 43.7359 63.7096 43.7359 62.5221V6.47709ZM9.53857 8.63279H39.4612V56.0553H9.53857V8.63279ZM24.4998 58.211C25.6771 58.211 26.6372 59.1791 26.6372 60.3664C26.6372 61.5539 25.6771 62.5221 24.4998 62.5221C23.3227 62.5221 22.3626 61.5539 22.3626 60.3664C22.3626 59.1791 23.3227 58.211 24.4998 58.211Z" />
</svg>
