<svg width="116" height="76" viewBox="0 0 116 76" xmlns="http://www.w3.org/2000/svg">
<path fill-rule="evenodd" clip-rule="evenodd" d="M107.965 2.15951H8.97917C5.66256 2.15951 2.97392 4.86465 2.97392 8.20153V67.0884C2.97392 70.4257 5.66283 73.1313 8.97917 73.1313H107.965C111.282 73.1313 113.97 70.4257 113.97 67.0884V8.20153C113.97 4.86465 111.282 2.15951 107.965 2.15951ZM107.965 0.145416H8.97917C4.5571 0.145416 0.972168 3.75221 0.972168 8.20153V67.0884C0.972168 71.5379 4.5571 75.1454 8.97917 75.1454H107.965C112.387 75.1454 115.972 71.5379 115.972 67.0884V8.20153C115.972 3.75221 112.387 0.145416 107.965 0.145416Z" />
<path fill-rule="evenodd" clip-rule="evenodd" d="M71.6131 35.1644L62.925 29.9993C60.9877 28.8463 57.8155 26.9625 55.8705 25.8093L46.8636 20.6444C44.9268 19.491 43.0217 20.4171 43.0217 22.7072V51.812C43.0217 54.0936 44.9268 55.0278 46.8636 53.8744L55.7113 48.7097C57.656 47.5561 60.9081 45.6725 62.845 44.5193L71.5731 39.3546C73.51 38.2014 73.55 36.3172 71.6131 35.1644Z" />
</svg>
