<svg width="24" height="24" viewBox="0 0 24 24" xmlns="http://www.w3.org/2000/svg">
<path fill-rule="evenodd" clip-rule="evenodd" d="M10 2C5.58172 2 2 5.58172 2 10C2 14.4183 5.58172 18 10 18C14.4183 18 18 14.4183 18 10C18 5.58172 14.4183 2 10 2ZM0 10C0 4.47715 4.47715 0 10 0C15.5228 0 20 4.47715 20 10C20 15.5228 15.5228 20 10 20C4.47715 20 0 15.5228 0 10Z"/>
<path fill-rule="evenodd" clip-rule="evenodd" d="M15.6589 15.6589C16.0494 15.2684 16.6825 15.2684 17.0731 15.6589L23.7071 22.2929C24.0976 22.6834 24.0976 23.3166 23.7071 23.7071C23.3166 24.0977 22.6834 24.0977 22.2929 23.7071L15.6589 17.0731C15.2683 16.6826 15.2683 16.0494 15.6589 15.6589Z" />
<path fill-rule="evenodd" clip-rule="evenodd" d="M10 5C10.5523 5 11 5.44772 11 6V14C11 14.5523 10.5523 15 10 15C9.44772 15 9 14.5523 9 14V6C9 5.44772 9.44772 5 10 5Z" />
<path fill-rule="evenodd" clip-rule="evenodd" d="M5 10C5 9.44772 5.44772 9 6 9H14C14.5523 9 15 9.44772 15 10C15 10.5523 14.5523 11 14 11H6C5.44772 11 5 10.5523 5 10Z" />
</svg>
